<?xml version="1.0" encoding="utf-8"?>
<!-- Generator: Adobe Illustrator 21.1.0, SVG Export Plug-In . SVG Version: 6.00 Build 0)  -->
<svg version="1.1" id="Layer_1" xmlns="http://www.w3.org/2000/svg" xmlns:xlink="http://www.w3.org/1999/xlink" x="0px" y="0px"
	 viewBox="0 0 1574.3 296.7" style="enable-background:new 0 0 1574.3 296.7;" xml:space="preserve">
<style type="text/css">
	.st0{fill:#E41B13;}
	.st1{fill:#54314E;}
	.st2{fill:#7B537A;}
	.st3{fill:#6A4063;}
	.st4{fill:#3F243C;}
	.st5{clip-path:url(#SVGID_2_);}
	.st6{fill:#482B49;}
	.st7{fill:#623E63;}
	.st8{fill:#4C2F4E;}
</style>
<title>Westpac One Business_Lock Up_Aubergine_Energy</title>
<path id="_Path_" class="st0" d="M350.4,90.1c-4.1,1.7-6.9,12.4-6.9,12.4l-25.4,88.6c-2.9,11.1-12.1,17-22.5,17H240
	c4-0.7,8.4-12.5,8.4-12.5l28.3-88.2c4-13.5,10.8-17.3,21.2-17.3L350.4,90.1z"/>
<path id="_Path_2" class="st0" d="M61.4,90.1c4.1,1.7,6.9,12.4,6.9,12.4l25.4,88.6c2.9,11.1,12.1,17,22.5,17h55.7
	c-4-0.7-8.4-12.5-8.4-12.5l-28.3-88.2c-4-13.5-10.8-17.3-21.2-17.3L61.4,90.1z"/>
<rect id="_Path_3" x="174.6" y="90.8" class="st0" width="61.9" height="117.3"/>
<rect id="_Path_4" x="414.1" y="61.7" class="st1" width="3.1" height="173.3"/>
<path class="st2" d="M486.1,150.2c0,21.9,12.9,39.6,33.7,44.7l-22.5-77.6C490.2,125.6,486.1,136.8,486.1,150.2z"/>
<path class="st1" d="M535.3,101c-15.7,0-29.2,5.9-38,16.3l22.5,77.6c4.2,1,8.5,1.5,12.9,1.5c28.3,0,49.4-19.1,49.4-49.4
	C582,121.1,563.6,101,535.3,101z M535.6,184.6c-11.1,0-17.2-17.4-17.2-40.9c0-17.9,4.9-31,14.1-31c10.9,0,17.1,17.6,17.1,41
	C549.5,171.7,544.7,184.6,535.6,184.6L535.6,184.6z"/>
<path class="st3" d="M685,174v-45.6c0-8.4-1.9-14.9-5.5-19.4l-10.5,32.6l0.1,0.3l0,0l17.2,52.9h8.7v-11.2
	C687.5,182.5,685,181.7,685,174z"/>
<path class="st2" d="M679.6,109c-4.3-5.4-11-8.1-20-8.1c-1.2,0-2.4,0.1-3.6,0.2c0.1,0.2,0.2,0.4,0.2,0.7l12.9,39.8l0,0L679.6,109z"
	/>
<polygon class="st4" points="686.3,194.8 669.2,141.9 669.2,141.9 653.9,194.8 "/>
<path class="st1" d="M669.1,141.6l-12.9-39.8c-0.1-0.2-0.1-0.5-0.2-0.7c-12.8,1.4-22.4,10.2-28.7,17.4v-18.4h-5.5l-35.3,9.2v6
	l9.4,9.9V174c0,7.7-2.7,8.5-10.2,9.6v11.2h51.1v-11.2c-7.5-1-9.4-1.8-9.4-9.6v-50.2c5.2-1.8,10.6-2.8,16.1-2.8
	c7.9,0,10.2,3.7,10.2,10.6V174c0,7.7-1.7,8.5-9.2,9.6v11.2h9.5l15.3-52.9L669.1,141.6z"/>
<path class="st3" d="M780.2,164.8l-5.5-3.7c-5.7,7.4-13.4,11.4-24.1,11.4c-14.7,0-25.5-10.2-25.5-26.6h54.8v-6.5
	c0-21-12.5-38.4-36.8-38.4c-25.1,0-45.9,20.1-45.9,50.8c0,27.8,18.6,44.7,43.5,44.7C762.1,196.4,775.8,183.9,780.2,164.8z
	 M740.2,112.5c8.7,0,12.6,9.6,12.7,23.3h-27.5C726.6,123.3,730.6,112.5,740.2,112.5L740.2,112.5z"/>
<g>
	<defs>
		<path id="SVGID_1_" d="M877.2,101c-13,0-21.7,6.7-26.8,16.3V67.1h-5.7l-35.3,6.6v6.2l9.3,9.9v95.6c10.8,8.4,27.6,11.4,43.4,11.4
			c28.6,0,50.8-19.9,50.8-52.9C912.9,116.4,898.8,101,877.2,101z M862.2,185.3c-9.1,0-11.8-6.4-11.8-16.5v-46.2
			c3-1.5,6.3-2.2,9.6-2.2c12.1,0,20.5,11.6,20.5,32.7C880.6,171.8,874.2,185.3,862.2,185.3L862.2,185.3z M1017.8,179.9h4v11.6
			l-35.7,5.4h-6.4v-16.5c-6.1,7.7-16.5,16.5-31.7,16.5c-14.8,0-25.1-8.9-25.1-28.6v-38.9c0-4.9-1-8.8-6.4-9.9l-2.5-0.8V109l34.9-8
			h5.9v64.3c0,8.4,3.7,12.8,10.3,12.8c5,0,10-0.9,14.7-2.7v-46c0-4.9-1-8.8-6.4-9.9l-2.4-0.8V109l34.5-8.1h6.1v69.9
			C1011.6,176.5,1012.8,179.7,1017.8,179.9L1017.8,179.9z M1099.8,164.1c0,21-14.1,32.8-38.2,32.8c-15.2,0-26.9-4.4-34.8-9.8
			l-1-20.4h14.5c3,12.8,9.8,19,22.4,19c8.4,0,14.3-3.2,14.3-9.6c0-6.6-4-8.9-19-12.3c-21.7-4.9-32.2-13.8-32.2-31.1
			c0-20.5,14.3-31.8,36.7-31.8c12,0,23.1,3,30.5,7.9v18.5h-14c-2.5-9.4-7.6-15.3-17.8-15.3c-7.7,0-11.8,4-11.8,9.6
			c0,5.7,2.7,8.8,18.3,11.6C1086.3,136.8,1099.9,145.1,1099.8,164.1L1099.8,164.1z M1111.3,79.5c0-8.6,6.6-16,17.3-16
			s17.2,7.4,17.2,16s-6.4,16-17.2,16S1111.3,88,1111.3,79.5L1111.3,79.5z M1155,184v11.3h-52.2v-11.3c7.6-1,10.3-1.9,10.3-9.6v-49.6
			l-9.4-10.1v-5.2l35.5-8.6h5.6v73.6C1144.8,182.1,1147.5,182.9,1155,184L1155,184z M1268.2,184v11.3h-51v-11.3
			c7.6-1,9.3-1.9,9.3-9.6v-42.8c0-6.9-2.4-10.6-10.3-10.6c-5.5,0-11,1-16.2,2.9v50.5c0,7.7,1.8,8.6,9.4,9.6v11.3h-51.3v-11.3
			c7.6-1,10.3-1.9,10.3-9.6v-49l-9.4-9.9v-6.1l35.5-9.3h5.6v18.5c6.9-7.9,17.8-17.7,32.5-17.7c16.5,0,25.6,8.9,25.6,27.6v45.8
			C1258.2,182.1,1260.7,182.9,1268.2,184L1268.2,184z M1322.3,172.9c-14.8,0-25.6-10.3-25.6-26.8h55v-6.6c0-21-12.6-38.6-37-38.6
			c-25.2,0-46.1,20.2-46.1,51c0,27.9,18.7,44.9,43.8,44.9c21.6,0,35.3-12.6,39.7-31.8l-5.6-3.7
			C1340.9,168.8,1333.2,172.8,1322.3,172.9L1322.3,172.9z M1311.9,112.6c8.8,0,12.6,9.6,12.8,23.4h-27.6
			C1298.3,123.3,1302.3,112.6,1311.9,112.6L1311.9,112.6z M1432.8,164.1c0,21-14.1,32.8-38.2,32.8c-15.2,0-26.9-4.4-34.8-9.8
			l-1-20.4h14.5c3,12.8,9.8,19,22.4,19c8.4,0,14.3-3.2,14.3-9.6c0-6.6-4-8.9-19-12.3c-21.7-4.9-32.2-13.8-32.2-31.1
			c0-20.5,14.3-31.8,36.7-31.8c12,0,23.1,3,30.5,7.9v18.5h-14c-2.5-9.4-7.6-15.3-17.8-15.3c-7.7,0-11.8,4-11.8,9.6
			c0,5.7,2.7,8.8,18.3,11.6C1419.2,136.8,1432.8,145.1,1432.8,164.1L1432.8,164.1z M1512.8,164.1c0,21-14.1,32.8-38.2,32.8
			c-15.2,0-26.9-4.4-34.8-9.8l-1-20.4h14.5c3,12.8,9.8,19,22.4,19c8.4,0,14.3-3.2,14.3-9.6c0-6.6-4-8.9-19-12.3
			c-21.7-4.9-32.2-13.8-32.2-31.1c0-20.5,14.3-31.8,36.7-31.8c12,0,23.1,3,30.5,7.9v18.5h-14c-2.5-9.4-7.6-15.3-17.8-15.3
			c-7.7,0-11.8,4-11.8,9.6c0,5.7,2.7,8.8,18.3,11.6C1499.3,136.8,1512.9,145.1,1512.8,164.1L1512.8,164.1z"/>
	</defs>
	<clipPath id="SVGID_2_">
		<use xlink:href="#SVGID_1_"  style="overflow:visible;"/>
	</clipPath>
	<g class="st5">
		<path class="st6" d="M1322.9,141.1L1322.9,141.1l-0.1,0.2L1322.9,141.1l13.4-41.3c0.3-1,0.6-2,0.9-3c-0.3,1-0.6,2-0.9,3
			L1322.9,141.1z"/>
		<path class="st6" d="M1376.9,328.1c0,0,0.6,2.1,1.6,5.3l0.4,1.2l-0.4-1.2C1377.4,330.2,1376.9,328.1,1376.9,328.1l-54-186.7l0,0
			L1376.9,328.1z"/>
		<path class="st6" d="M950.1,58.1l-0.4-0.1c-0.5-0.1-1-0.3-1.5-0.4c0.5,0.1,1,0.2,1.5,0.4L950.1,58.1c1.2,0.3,2.4,0.7,3.6,1.2
			l0.3,0.1l-0.3-0.1C952.5,58.8,951.3,58.4,950.1,58.1z"/>
		<path class="st6" d="M1345,79.2c0.1-0.2,0.3-0.5,0.4-0.7s0.4-0.6,0.6-0.9c-0.2,0.3-0.4,0.6-0.6,0.9S1345.1,79,1345,79.2z"/>
		<path class="st6" d="M1340.2,88.9c0.1-0.3,0.2-0.5,0.3-0.8c0.3-0.6,0.5-1.2,0.8-1.8c-0.3,0.6-0.5,1.2-0.8,1.8
			C1340.4,88.3,1340.3,88.6,1340.2,88.9z"/>
		<path class="st6" d="M1339.1,91.8l0.2-0.5l0.4-1.1l-0.4,1.1L1339.1,91.8z"/>
		<path class="st6" d="M1193.9,71.1c-0.7,1.4-1.4,2.8-2.1,4.2C1192.5,73.9,1193.2,72.5,1193.9,71.1z"/>
		<path class="st6" d="M956.6,60.4l0.9,0.4l0.4,0.2l-0.4-0.2L956.6,60.4z"/>
		<path class="st6" d="M1376.3,56.8l-0.3,0.1c-0.6,0.1-1.2,0.3-1.9,0.4c0.6-0.1,1.2-0.3,1.9-0.4L1376.3,56.8
			c1.4-0.3,2.8-0.5,4.2-0.7l0,0C1379,56.3,1377.6,56.5,1376.3,56.8z"/>
		<path class="st6" d="M1070,348.6c-6.3-9.5-11.1-22.4-11.1-22.4l-24-73.9l24,73.9C1058.9,326.2,1063.7,339.1,1070,348.6z"/>
		<path class="st6" d="M941.4,339c2.2-6,3.5-10.8,3.5-10.8l14.3-49.5l-14.3,49.5C944.9,328.2,943.6,333.1,941.4,339z"/>
		<path class="st6" d="M1348.1,74.4c-0.2,0.3-0.4,0.6-0.6,0.9C1347.7,75,1347.9,74.7,1348.1,74.4c0.7-0.9,1.4-1.8,2.1-2.6l0.4-0.5
			l-0.4,0.5C1349.4,72.7,1348.8,73.5,1348.1,74.4z"/>
		<path class="st6" d="M1371.9,57.8l0.2,0c0.6-0.2,1.2-0.3,1.8-0.5c-0.6,0.1-1.2,0.3-1.8,0.5L1371.9,57.8z"/>
		<path class="st6" d="M969.8,70c0.3,0.3,0.7,0.7,1,1.1l0.3,0.4l-0.3-0.4C970.5,70.7,970.1,70.3,969.8,70z"/>
		<path class="st6" d="M961.7,63.2l-0.5-0.3L961.7,63.2c1,0.6,1.9,1.2,2.8,1.9c0.2,0.1,0.3,0.3,0.5,0.4c-0.2-0.1-0.3-0.3-0.5-0.4
			C963.6,64.4,962.6,63.8,961.7,63.2z"/>
		<path class="st6" d="M975.5,77.3c0.3,0.4,0.6,0.9,0.9,1.4c0.1,0.2,0.3,0.4,0.4,0.7c-0.1-0.2-0.2-0.5-0.4-0.7
			C976.1,78.2,975.8,77.7,975.5,77.3z"/>
		<path class="st6" d="M1356.6,65.5c-0.5,0.4-1.1,0.9-1.6,1.3C1355.5,66.4,1356,66,1356.6,65.5c0.2-0.2,0.4-0.4,0.7-0.6
			s0.6-0.4,0.9-0.7c-0.3,0.2-0.6,0.4-0.9,0.7S1356.8,65.3,1356.6,65.5z"/>
		<path class="st6" d="M1367.9,59.1l0.2-0.1c0.6-0.2,1.2-0.4,1.8-0.6c-0.6,0.2-1.2,0.4-1.8,0.6L1367.9,59.1z"/>
		<path class="st6" d="M1350.6,71.3c0.1-0.2,0.3-0.3,0.4-0.5s0.5-0.6,0.8-0.8c-0.3,0.3-0.5,0.6-0.8,0.8S1350.7,71.2,1350.6,71.3z"/>
		<path class="st6" d="M974.2,75.3l0.4,0.6l0.9,1.3l-0.9-1.3L974.2,75.3z"/>
		<path class="st6" d="M803,55.7v302h716.2v-302L803,55.7z M1519,357.7h-125.7c3.3-0.4,6.5-1,9.7-1.8c-3.2,0.8-6.5,1.5-9.7,1.8
			h-310.6c4.1-1.7,7.8-4.1,11.1-7c-3.3,2.9-7.1,5.3-11.1,7H930.9c0.7-0.7,1.3-1.3,1.8-2.1c-0.6,0.7-1.2,1.4-1.8,2.1h-4
			c-23-3.1-42.3-17.7-49-42.9L803.1,56.3v-0.6h127.5h1h94.8l-27.5,85.6v0.1v-0.1l27.5-85.6h269.1l25,77.7l-25-77.7h89.6
			c-1,0.1-2,0.2-2.9,0.2c1-0.1,1.9-0.2,2.9-0.2h133.7l-74.9,258.8c-2.5,9.7-7.4,18.6-14.3,25.9c6.9-7.3,11.8-16.2,14.3-25.9
			l74.9-258.8h0.2V357.7z"/>
		<path class="st6" d="M1360.4,62.8l0.2-0.2c0.4-0.2,0.7-0.4,1.1-0.6c-0.4,0.2-0.8,0.4-1.1,0.6L1360.4,62.8z"/>
		<path class="st7" d="M1079.8,55.7h-53.5l-27.5,85.6v0.1l0.1,0.2l0,0l35.9,110.8l24,73.9c0,0,4.9,12.9,11.1,22.4l0.6,0.9
			c0.3,0.4,0.6,0.8,0.9,1.2c2.3,3.2,4.8,5.7,7.2,6.9h1.2L1079.8,55.7z"/>
		<path class="st8" d="M1443.9,314.5c-2.5,9.7-7.4,18.6-14.3,25.9c-1.5,1.5-3.1,3-4.7,4.4c-1.7,1.4-3.4,2.6-5.2,3.8
			c-1,0.7-2.1,1.3-3.2,1.9c-3.3,1.8-6.8,3.3-10.3,4.5c-1,0.3-2.1,0.6-3.1,0.9c-3.2,0.8-6.5,1.5-9.7,1.8H1519V55.7h-0.2L1443.9,314.5
			z"/>
		<path class="st7" d="M1262.9,326l59.9-184.6l0,0l0,0l0.1-0.2l-2.5-7.8l-25-77.7h-55.3v301.9h2.4
			C1252.5,353.6,1262.9,326,1262.9,326z"/>
		<path class="st8" d="M1071.4,350.7c-0.3-0.4-0.6-0.8-0.9-1.2l-0.6-0.9c-6.3-9.5-11.1-22.4-11.1-22.4l-24-73.9l-35.9-110.8
			l-39.7,137.1l-14.3,49.5c0,0-1.2,4.8-3.5,10.8c-0.4,1.1-0.9,2.3-1.4,3.5c-1.4,3.4-3,6.6-4.9,9.7c-0.7,1.1-1.5,2.2-2.3,3.3
			c-0.6,0.7-1.2,1.4-1.8,2.1h147.8C1076.2,356.5,1073.8,353.9,1071.4,350.7z"/>
		<polygon class="st8" points="1034.9,252.4 998.9,141.6 998.9,141.6 		"/>
		<path class="st4" d="M1095.4,349.2c0.7-0.7,1.4-1.4,2.2-2.2c6.2-6.9,11.3-16.7,15.3-30.1l74.4-231l0.3-0.9l0,0l0.2-0.6v-0.1
			l0.7-1.6l0.1-0.2l0.4-0.9l0.1-0.2l0.4-0.9l0.1-0.2l0.5-1.1l0.1-0.2l0.6-1.2l0,0c0.3-0.6,0.6-1.3,0.9-1.9l0.2-0.5
			c0.6-1.4,1.3-2.8,2.1-4.2l0.3-0.5c0.4-0.7,0.8-1.4,1.2-2.1l0,0c1-1.7,2-3.4,3-5c1.7-2.8,3.9-5.4,6.3-7.7h-124.8v301.9h2.9
			c4.1-1.7,7.8-4.1,11.1-7c0.5-0.4,1-0.9,1.4-1.3L1095.4,349.2z"/>
		<rect x="1079.8" y="55.7" class="st4" width="0" height="301.9"/>
		<path class="st8" d="M1240.1,55.7h-35.4c-2.5,2.2-4.6,4.8-6.3,7.7c-1,1.6-2.1,3.3-3,5l0,0c-0.4,0.7-0.8,1.4-1.2,2.1l-0.3,0.5
			c-0.7,1.4-1.4,2.8-2.1,4.2l-0.2,0.5c-0.3,0.7-0.6,1.3-0.9,1.9l-0.6,1.3l-0.1,0.2l-0.5,1.1l-0.1,0.2l-0.4,0.9l-0.1,0.2l-0.4,0.9
			l-0.1,0.2l-0.7,1.6v0.1l-0.2,0.6l0,0l-0.3,0.9l-74.4,231c-4,13.4-9.1,23.2-15.3,30.1c-0.7,0.8-1.4,1.5-2.2,2.2l-0.1,0.1
			c-0.5,0.5-1,0.9-1.4,1.3c-3.3,2.9-7.1,5.3-11.1,7h157.3V55.7z"/>
		<path class="st8" d="M1198.3,63.4c-1,1.6-2.1,3.3-3,5l0,0l0,0C1196.3,66.6,1197.3,64.9,1198.3,63.4c1.7-2.8,3.9-5.4,6.3-7.7l0,0
			C1202.2,58,1200.1,60.5,1198.3,63.4z"/>
		<path class="st8" d="M1190.1,78.9l0.6-1.3l0,0L1190.1,78.9z"/>
		<path class="st8" d="M1188.5,82.7l-0.7,1.6L1188.5,82.7z"/>
		<path class="st8" d="M1112.8,316.9c-4,13.4-9.1,23.2-15.3,30.1C1103.8,340.1,1108.8,330.3,1112.8,316.9l74.4-231l0.3-0.9l-0.3,0.9
			L1112.8,316.9z"/>
		<path class="st6" d="M936.5,55.9h0.2l0.8,0.1c1,0.1,1.9,0.2,2.8,0.3l0.8,0.1h0.2l1.8,0.3l0.5,0.1c0.6,0.1,1.2,0.2,1.9,0.3l0.3,0.1
			c0.8,0.2,1.6,0.3,2.3,0.5c0.5,0.1,1,0.2,1.5,0.4l0.4,0.1c1.2,0.3,2.4,0.7,3.6,1.2l0.3,0.1l0.2,0.1c0.8,0.3,1.6,0.7,2.4,1l0.9,0.4
			l0.4,0.2l0.2,0.1l0.9,0.5c0.4,0.2,0.9,0.5,1.3,0.7s0.6,0.3,0.8,0.5l0.2,0.1l0.5,0.3c1,0.6,1.9,1.2,2.8,1.9
			c0.2,0.1,0.3,0.3,0.5,0.4l0.2,0.1c0.9,0.7,1.7,1.4,2.5,2.2c0.3,0.2,0.5,0.5,0.8,0.8c0.4,0.4,0.9,0.9,1.3,1.3
			c0.3,0.3,0.7,0.7,1,1.1l0.3,0.4l0.5,0.6l0.8,1l0.5,0.7c0.2,0.3,0.5,0.6,0.7,0.9s0.3,0.5,0.5,0.7l0.4,0.6l0.9,1.3
			c0.3,0.4,0.6,0.9,0.9,1.4c0.1,0.2,0.3,0.4,0.4,0.7l0.6,1l0.6,1l0.4,0.7c0.2,0.3,0.4,0.7,0.6,1.1c0.4,0.7,0.7,1.5,1.1,2.3
			c0.4,0.9,0.9,1.8,1.3,2.8c0.1,0.3,0.3,0.6,0.4,1s0.3,0.9,0.5,1.3l0.4,1c0.3,0.8,0.6,1.5,0.9,2.3c0.7,2,1.3,4,2,6.1l13.4,41.3l0,0
			l27.5-85.6h-94.6C933.4,55.7,934.9,55.8,936.5,55.9z"/>
		<path class="st4" d="M940,342.5c0.5-1.2,1-2.4,1.4-3.5c2.2-6,3.5-10.8,3.5-10.8l14.3-49.5l39.7-137.1l-0.1-0.2v-0.1l0,0L985.4,100
			c-0.7-2.1-1.3-4.2-2-6.1c-0.3-0.8-0.6-1.6-0.9-2.3l-0.4-1c-0.2-0.4-0.3-0.9-0.5-1.3s-0.2-0.7-0.4-1c-0.4-1-0.8-1.8-1.3-2.8
			c-0.4-0.8-0.7-1.6-1.1-2.3c-0.2-0.4-0.4-0.7-0.6-1.1l-0.4-0.7l-0.6-1l-0.6-1c-0.1-0.2-0.2-0.5-0.4-0.7c-0.3-0.5-0.6-0.9-0.9-1.4
			l-0.9-1.3l-0.4-0.6c-0.2-0.2-0.3-0.5-0.5-0.7s-0.5-0.6-0.7-0.9l-0.5-0.7l-0.8-1l-0.5-0.6l-0.3-0.4c-0.3-0.4-0.7-0.7-1-1.1
			s-0.9-0.9-1.3-1.3c-0.2-0.2-0.5-0.5-0.8-0.8c-0.8-0.8-1.7-1.5-2.5-2.2l-0.2-0.2c-0.2-0.1-0.3-0.3-0.5-0.4
			c-0.9-0.7-1.8-1.3-2.8-1.9l-0.5-0.3l-0.2-0.1c-0.3-0.2-0.6-0.3-0.8-0.5s-0.8-0.5-1.3-0.7l-0.9-0.5l-0.2-0.1l-0.4-0.2l-0.9-0.4
			c-0.8-0.4-1.6-0.7-2.4-1l-0.2-0.1l-0.3-0.1c-1.2-0.4-2.3-0.8-3.6-1.2l-0.4-0.1c-0.5-0.1-1-0.3-1.5-0.4c-0.8-0.2-1.5-0.4-2.3-0.5
			l-0.3-0.1c-0.6-0.1-1.2-0.2-1.9-0.3l-0.5-0.1l-1.8-0.3H941l-0.8-0.1c-0.9-0.1-1.9-0.2-2.8-0.3l-0.8-0.1h-0.2
			c-1.6-0.1-3.1-0.2-4.8-0.2h-0.2h-1H803.1v0.6l74.8,258.5c6.7,25.2,26,39.9,49,42.9h4c0.7-0.7,1.3-1.3,1.8-2.1
			c0.8-1.1,1.6-2.2,2.3-3.3C937,349.2,938.6,346,940,342.5z"/>
		<polygon class="st4" points="998.9,141.6 998.9,141.6 998.9,141.6 998.8,141.4 998.9,141.6 		"/>
		<polygon class="st4" points="998.9,141.6 959.2,278.7 998.9,141.6 998.9,141.6 		"/>
		<polygon class="st4" points="998.9,141.6 998.9,141.6 998.9,141.6 998.9,141.6 998.9,141.6 		"/>
		<path class="st4" d="M976.7,79.4l0.6,1l0.6,1l-0.6-1L976.7,79.4z"/>
		<path class="st4" d="M967.7,67.9c-0.8-0.8-1.7-1.5-2.5-2.2l-0.2-0.1l0.2,0.2C966,66.4,966.9,67.1,967.7,67.9
			c0.3,0.2,0.5,0.5,0.8,0.8c0.4,0.4,0.9,0.9,1.3,1.3c-0.4-0.4-0.9-0.9-1.3-1.3C968.2,68.4,968,68.1,967.7,67.9z"/>
		<path class="st4" d="M972.9,73.7c0.2,0.3,0.5,0.6,0.7,0.9s0.3,0.5,0.5,0.7c-0.2-0.2-0.3-0.5-0.5-0.7S973.2,74,972.9,73.7z"/>
		<path class="st4" d="M971.1,71.4l0.5,0.6l0.8,1l-0.8-1L971.1,71.4z"/>
		<path class="st4" d="M957.8,61l0.2,0.1l0.9,0.5l-0.9-0.5L957.8,61z"/>
		<path class="st4" d="M960.2,62.3c0.3,0.2,0.6,0.3,0.8,0.5l0.2,0.1l-0.2-0.1C960.8,62.6,960.5,62.5,960.2,62.3z"/>
		<path class="st4" d="M985.4,100c-0.7-2.1-1.3-4.2-2-6.1c-0.3-0.8-0.6-1.6-0.9-2.3l-0.4-1l0.4,1c0.3,0.8,0.6,1.5,0.9,2.3
			C984.1,95.8,984.7,97.9,985.4,100l13.4,41.3l0,0L985.4,100z"/>
		<path class="st4" d="M979.9,85.5c-0.4-0.8-0.7-1.6-1.1-2.3c-0.2-0.4-0.4-0.7-0.6-1.1c0.2,0.3,0.4,0.7,0.6,1.1
			C979.2,83.9,979.6,84.7,979.9,85.5c0.4,0.9,0.9,1.8,1.3,2.8c0.1,0.3,0.3,0.6,0.4,1c-0.1-0.3-0.2-0.7-0.4-1
			C980.8,87.3,980.4,86.4,979.9,85.5z"/>
		<path class="st4" d="M954,59.4l0.2,0.1c0.8,0.3,1.6,0.7,2.4,1c-0.8-0.4-1.6-0.7-2.4-1L954,59.4z"/>
		<path class="st4" d="M936.5,55.9h0.2l0.8,0.1l-0.8-0.1H936.5c-1.6-0.1-3.1-0.2-4.8-0.2l0,0C933.4,55.7,934.9,55.8,936.5,55.9z"/>
		<path class="st4" d="M941.1,56.3l-0.8-0.1L941.1,56.3h0.2l1.8,0.3l-1.8-0.3H941.1z"/>
		<path class="st4" d="M945.5,57c-0.6-0.1-1.2-0.2-1.9-0.3C944.2,56.8,944.9,56.9,945.5,57l0.3,0.1c0.8,0.2,1.6,0.3,2.3,0.5
			c-0.8-0.2-1.5-0.4-2.3-0.5L945.5,57z"/>
		<path class="st8" d="M1386.7,352.1c-0.2-0.2-0.3-0.5-0.4-0.7c-1.7-2.9-3.2-5.9-4.5-9c-0.3-0.7-0.5-1.3-0.8-2
			c-0.8-2.1-1.5-4.1-2.1-5.9l-0.4-1.2c-1-3.2-1.6-5.3-1.6-5.3l-54-186.7l-60,184.6c0,0-10.4,27.6-20.4,31.6H1391
			C1389.3,355.9,1387.9,354.1,1386.7,352.1z"/>
		<path class="st8" d="M1262.9,326l59.9-184.6l0,0L1262.9,326c0,0-10.4,27.6-20.4,31.6l0,0C1252.5,353.6,1262.9,326,1262.9,326z"/>
		<path class="st6" d="M1322.9,141.1l13.4-41.3c0.3-1,0.6-2,0.9-3v-0.1l0,0c0.3-1,0.7-2,1-3c0.2-0.7,0.5-1.3,0.7-1.9l0.2-0.5
			l0.4-1.1c0.2-0.5,0.4-0.9,0.5-1.4c0.1-0.3,0.2-0.5,0.3-0.8c0.3-0.6,0.5-1.2,0.8-1.8l0.5-1.1c0.3-0.7,0.7-1.5,1-2.2
			c0.5-1,1-1.9,1.6-2.8l0.6-1c0.1-0.2,0.3-0.5,0.4-0.7s0.4-0.6,0.6-0.9c0.4-0.6,0.8-1.2,1.2-1.8l0.3-0.4c0.2-0.3,0.4-0.6,0.6-0.9
			c0.7-0.9,1.4-1.8,2.1-2.6l0.4-0.5l0.1-0.1c0.1-0.2,0.3-0.3,0.4-0.5s0.5-0.6,0.8-0.8c0.5-0.5,1-1,1.5-1.6c0.2-0.2,0.5-0.5,0.8-0.8
			s0.6-0.6,0.9-0.8c0.5-0.5,1.1-0.9,1.6-1.3c0.2-0.2,0.4-0.4,0.7-0.6s0.6-0.4,0.9-0.7c0.6-0.4,1.2-0.9,1.9-1.3l0.4-0.3l0.2-0.2
			c0.4-0.2,0.7-0.4,1.1-0.6c0.7-0.4,1.3-0.7,1.9-1l0.6-0.3c0.4-0.2,0.9-0.4,1.3-0.6l0.7-0.3l1.3-0.5l0.3-0.1l0.2-0.1
			c0.6-0.2,1.2-0.4,1.8-0.6c0.6-0.2,1.2-0.4,1.8-0.5l0.2-0.1l0.2-0.1c0.6-0.2,1.2-0.3,1.8-0.5h0.2c0.6-0.1,1.2-0.3,1.9-0.4l0.3-0.1
			c1.4-0.3,2.8-0.5,4.2-0.7h0.1h0.1l1.5-0.2c1-0.1,1.9-0.2,2.9-0.2h-89.6l25,77.7l2.5,7.8L1322.9,141.1z"/>
		<path class="st4" d="M1416.5,350.5c1.1-0.6,2.2-1.2,3.2-1.9c1.8-1.2,3.5-2.4,5.2-3.8c1.7-1.4,3.2-2.8,4.7-4.4
			c6.9-7.3,11.8-16.2,14.3-25.9l74.9-258.8h-133.7c-1,0.1-2,0.2-2.9,0.2l-1.5,0.2h-0.1h-0.1c-1.4,0.2-2.8,0.4-4.2,0.7l-0.3,0.1
			c-0.6,0.1-1.2,0.3-1.9,0.4h-0.2c-0.6,0.1-1.2,0.3-1.8,0.5l-0.2,0l-0.2,0.1c-0.6,0.2-1.2,0.4-1.8,0.5c-0.6,0.2-1.2,0.4-1.8,0.6
			l-0.2,0.1l-0.3,0.1l-1.3,0.5l-0.7,0.3c-0.4,0.2-0.9,0.4-1.3,0.6l-0.6,0.3c-0.7,0.3-1.3,0.7-1.9,1c-0.4,0.2-0.8,0.4-1.1,0.6
			l-0.2,0.2l-0.4,0.3c-0.7,0.4-1.3,0.8-1.9,1.3c-0.3,0.2-0.6,0.4-0.9,0.7s-0.5,0.4-0.7,0.6c-0.5,0.4-1.1,0.9-1.6,1.3
			c-0.3,0.3-0.6,0.5-0.9,0.8s-0.5,0.5-0.8,0.8c-0.5,0.5-1,1-1.5,1.6c-0.3,0.3-0.5,0.6-0.8,0.8s-0.3,0.3-0.4,0.5l-0.1,0.1l-0.4,0.5
			c-0.7,0.8-1.4,1.7-2.1,2.6c-0.2,0.3-0.4,0.6-0.6,0.9l-0.3,0.4c-0.4,0.6-0.8,1.2-1.2,1.8c-0.2,0.3-0.4,0.6-0.6,0.9
			s-0.3,0.5-0.4,0.7l-0.6,1c-0.5,0.9-1.1,1.8-1.6,2.8c-0.4,0.7-0.7,1.5-1,2.2l-0.5,1.1c-0.3,0.6-0.5,1.2-0.8,1.8
			c-0.1,0.3-0.2,0.5-0.3,0.8c-0.2,0.4-0.4,0.9-0.5,1.4l-0.4,1.1l-0.2,0.5c-0.2,0.6-0.5,1.2-0.7,1.9c-0.3,1-0.7,2-1,3l0,0v0.1
			c-0.3,1-0.6,2-0.9,3L1323,141l-0.1,0.2l0,0l0,0l54,186.7c0,0,0.6,2.1,1.6,5.3l0.4,1.2c0.6,1.8,1.3,3.8,2.1,5.9
			c0.3,0.6,0.5,1.3,0.8,2c1.3,3.1,2.8,6.1,4.5,9c0.1,0.2,0.3,0.5,0.4,0.7c1.2,2,2.7,3.9,4.4,5.5h2.2c3.3-0.4,6.5-1,9.7-1.8
			c1.1-0.3,2.1-0.6,3.1-0.9C1409.8,353.7,1413.2,352.2,1416.5,350.5z"/>
		<polygon class="st4" points="1322.8,141.4 1322.8,141.3 1322.8,141.4 		"/>
		<path class="st4" d="M1366.3,59.8l1.3-0.5l0.3-0.1l-0.3,0.1L1366.3,59.8z"/>
		<path class="st4" d="M1363.7,61c-0.7,0.3-1.3,0.7-1.9,1C1362.4,61.6,1363.1,61.3,1363.7,61l0.6-0.3c0.4-0.2,0.9-0.4,1.3-0.6
			c-0.4,0.2-0.9,0.4-1.3,0.6L1363.7,61z"/>
		<path class="st4" d="M1380.5,56.1h0.1l1.5-0.2l-1.5,0.2H1380.5z"/>
		<path class="st4" d="M1369.9,58.4c0.6-0.2,1.2-0.4,1.8-0.5l0.2-0.1l-0.2,0.1C1371.1,58.1,1370.5,58.2,1369.9,58.4z"/>
		<path class="st4" d="M1358.2,64.3c0.6-0.4,1.2-0.9,1.9-1.3l0.4-0.3l-0.4,0.3C1359.4,63.4,1358.8,63.9,1358.2,64.3z"/>
		<path class="st4" d="M1337.3,96.6c0.3-1,0.7-2,1-3c0.2-0.7,0.5-1.3,0.7-1.9c-0.2,0.6-0.5,1.2-0.7,1.9
			C1338,94.6,1337.7,95.6,1337.3,96.6z"/>
		<path class="st4" d="M1353.3,68.5c-0.5,0.5-1,1-1.5,1.6C1352.2,69.5,1352.7,69,1353.3,68.5c0.2-0.2,0.5-0.5,0.8-0.8
			s0.6-0.6,0.9-0.8c-0.3,0.3-0.6,0.5-0.9,0.8S1353.5,68.2,1353.3,68.5z"/>
		<path class="st4" d="M1346,77.6c0.4-0.6,0.8-1.2,1.2-1.8l0.3-0.4l-0.3,0.4C1346.8,76.4,1346.4,77,1346,77.6z"/>
		<path class="st4" d="M1342.9,83c-0.4,0.7-0.7,1.5-1,2.2l-0.5,1.1l0.5-1.1C1342.2,84.5,1342.5,83.7,1342.9,83c0.5-1,1-1.9,1.6-2.8
			l0.6-1l-0.6,1C1343.9,81.1,1343.4,82,1342.9,83z"/>
	</g>
</g>
</svg>
